<svg xmlns="http://www.w3.org/2000/svg" viewBox="0 0 512 512">
  <rect width="512" height="512" rx="96" fill="#1e3a8a"/>
  <circle cx="256" cy="256" r="160" fill="white" stroke="#1e3a8a" stroke-width="8"/>
  <!-- Soccer ball pattern (simplified) -->
  <polygon points="256,110 295,140 280,185 232,185 217,140" fill="#111827"/>
  <polygon points="295,140 340,125 370,160 352,205 307,200 280,185" fill="white"/>
  <polygon points="280,185 307,200 295,245 256,258 232,245 232,185" fill="white"/>
  <polygon points="232,185 232,245 193,258 163,225 175,185 217,175" fill="white"/>
  <polygon points="217,140 232,185 175,185 148,152 175,118 217,115" fill="white"/>
  <circle cx="256" cy="256" r="160" fill="none" stroke="#1e3a8a" stroke-width="12"/>
  <text x="256" y="380" text-anchor="middle" font-family="Arial Black, sans-serif" font-size="60" font-weight="900" fill="#fbbf24">2026</text>
</svg>
